<?xml version="1.0" encoding="UTF-8"?>
<svg version="1.1" xmlns="http://www.w3.org/2000/svg" width="500" height="500">
<path d="M0 0 C1.19039886 0.00406357 1.19039886 0.00406357 2.40484619 0.00820923 C17.57912328 0.08598237 32.19755272 1.61774139 47.125 4.4375 C48.11032715 4.61410156 49.0956543 4.79070313 50.11083984 4.97265625 C113.10417268 16.42406165 176.23011001 53.50831265 216.16015625 103.98046875 C217.85057634 106.09433403 219.60149513 108.07679689 221.4375 110.0625 C232.37940914 122.51711547 240.93130099 137.09852673 249.125 151.4375 C249.56585938 152.20255859 250.00671875 152.96761719 250.4609375 153.75585938 C272.82148175 192.95457104 285.32087331 241.65945914 275.125 286.4375 C274.84293701 287.67910889 274.84293701 287.67910889 274.55517578 288.94580078 C267.04702731 320.6209888 249.28374631 346.13771208 227.125 369.4375 C226.58713867 370.00404297 226.04927734 370.57058594 225.49511719 371.15429688 C217.77598882 379.22571359 209.75771375 386.45233977 200.82324219 393.14941406 C199.15438815 394.41520962 197.51593722 395.71197382 195.8828125 397.0234375 C137.61573471 443.57652548 55.40139431 459.35121919 -17.52001953 452.07373047 C-50.08040817 448.3681238 -81.54158047 440.88850794 -111.875 428.4375 C-112.65037109 428.12200195 -113.42574219 427.80650391 -114.22460938 427.48144531 C-142.75777164 415.74465862 -170.19796152 398.37772207 -188.875 373.4375 C-189.47570312 372.65246094 -190.07640625 371.86742187 -190.6953125 371.05859375 C-218.29155587 333.50047778 -216.13582359 286.66524647 -209.74121094 242.68847656 C-204.15590768 206.777405 -194.46741781 171.35114661 -178.875 138.4375 C-178.46991211 137.56593262 -178.06482422 136.69436523 -177.64746094 135.79638672 C-168.77375641 116.82046707 -157.98578675 98.80746538 -144.875 82.4375 C-144.13894531 81.51066406 -143.40289062 80.58382812 -142.64453125 79.62890625 C-137.59855196 73.36702833 -132.30830084 67.36395075 -126.875 61.4375 C-125.89029184 60.34795726 -124.90593497 59.25809696 -123.921875 58.16796875 C-118.52090885 52.21137223 -113.13175501 46.51112076 -106.875 41.4375 C-105.78760599 40.52622591 -104.70038263 39.61474817 -103.61328125 38.703125 C-94.84674029 31.43516809 -85.7626732 25.08690263 -75.875 19.4375 C-75.25608887 19.08204102 -74.63717773 18.72658203 -73.99951172 18.36035156 C-65.6783386 13.67515496 -57.02480667 10.22244871 -48 7.125 C-47.06865234 6.79935059 -46.13730469 6.47370117 -45.17773438 6.13818359 C-30.41952886 1.28855454 -15.44939782 -0.12540029 0 0 Z " fill="#E8EAED" transform="translate(215.875,18.5625)"/>
</svg>
